<svg xmlns="http://www.w3.org/2000/svg" xmlns:xlink="http://www.w3.org/1999/xlink" width="1920" zoomAndPan="magnify" viewBox="0 0 1440 585.000005" height="780" preserveAspectRatio="xMidYMid meet" version="1.0"><defs><g/><clipPath id="c3ac478b86"><path d="M 253.046875 149.316406 L 298.097656 149.316406 L 298.097656 320.542969 L 253.046875 320.542969 Z M 253.046875 149.316406 " clip-rule="nonzero"/></clipPath></defs><g clip-path="url(#c3ac478b86)"><path fill="#ffde59" d="M 253.046875 149.316406 L 298.097656 149.316406 L 298.097656 320.546875 L 253.046875 320.546875 Z M 253.046875 149.316406 " fill-opacity="1" fill-rule="nonzero"/></g><g fill="#000000" fill-opacity="1"><g transform="translate(317.526087, 289.920802)"><g><path d="M 78.859375 -19.59375 L 37.453125 -19.59375 L 30.8125 0 L 2.53125 0 L 42.671875 -110.953125 L 73.96875 -110.953125 L 114.109375 0 L 85.5 0 Z M 71.90625 -40.453125 L 58.15625 -81.078125 L 44.5625 -40.453125 Z M 71.90625 -40.453125 "/></g></g></g><g fill="#000000" fill-opacity="1"><g transform="translate(434.007687, 289.920802)"><g><path d="M 94.359375 -75.234375 C 94.359375 -68.804688 92.878906 -62.929688 89.921875 -57.609375 C 86.972656 -52.285156 82.441406 -47.988281 76.328125 -44.71875 C 70.222656 -41.457031 62.640625 -39.828125 53.578125 -39.828125 L 36.828125 -39.828125 L 36.828125 0 L 9.796875 0 L 9.796875 -110.953125 L 53.578125 -110.953125 C 62.429688 -110.953125 69.910156 -109.421875 76.015625 -106.359375 C 82.128906 -103.304688 86.710938 -99.09375 89.765625 -93.71875 C 92.828125 -88.34375 94.359375 -82.179688 94.359375 -75.234375 Z M 51.515625 -61.328125 C 56.679688 -61.328125 60.53125 -62.535156 63.0625 -64.953125 C 65.59375 -67.378906 66.859375 -70.804688 66.859375 -75.234375 C 66.859375 -79.660156 65.59375 -83.082031 63.0625 -85.5 C 60.53125 -87.925781 56.679688 -89.140625 51.515625 -89.140625 L 36.828125 -89.140625 L 36.828125 -61.328125 Z M 51.515625 -61.328125 "/></g></g></g><g fill="#000000" fill-opacity="1"><g transform="translate(532.629816, 289.920802)"><g><path d="M 66.375 0 L 43.3125 -41.875 L 36.828125 -41.875 L 36.828125 0 L 9.796875 0 L 9.796875 -110.953125 L 55.15625 -110.953125 C 63.90625 -110.953125 71.359375 -109.421875 77.515625 -106.359375 C 83.679688 -103.304688 88.289062 -99.117188 91.34375 -93.796875 C 94.40625 -88.472656 95.9375 -82.546875 95.9375 -76.015625 C 95.9375 -68.640625 93.851562 -62.054688 89.6875 -56.265625 C 85.53125 -50.472656 79.394531 -46.363281 71.28125 -43.9375 L 96.875 0 Z M 36.828125 -61 L 53.578125 -61 C 58.523438 -61 62.238281 -62.210938 64.71875 -64.640625 C 67.195312 -67.066406 68.4375 -70.492188 68.4375 -74.921875 C 68.4375 -79.128906 67.195312 -82.441406 64.71875 -84.859375 C 62.238281 -87.285156 58.523438 -88.5 53.578125 -88.5 L 36.828125 -88.5 Z M 36.828125 -61 "/></g></g></g><g fill="#000000" fill-opacity="1"><g transform="translate(635.677322, 289.920802)"><g><path d="M 36.828125 -89.296875 L 36.828125 -66.859375 L 73.015625 -66.859375 L 73.015625 -45.984375 L 36.828125 -45.984375 L 36.828125 -21.65625 L 77.765625 -21.65625 L 77.765625 0 L 9.796875 0 L 9.796875 -110.953125 L 77.765625 -110.953125 L 77.765625 -89.296875 Z M 36.828125 -89.296875 "/></g></g></g><g fill="#000000" fill-opacity="1"><g transform="translate(721.181472, 289.920802)"><g><path d="M 109.046875 0 L 82.03125 0 L 36.828125 -68.4375 L 36.828125 0 L 9.796875 0 L 9.796875 -110.953125 L 36.828125 -110.953125 L 82.03125 -42.203125 L 82.03125 -110.953125 L 109.046875 -110.953125 Z M 109.046875 0 "/></g></g></g><g fill="#000000" fill-opacity="1"><g transform="translate(840.033749, 289.920802)"><g><path d="M 51.359375 -110.953125 C 63.054688 -110.953125 73.273438 -108.632812 82.015625 -104 C 90.765625 -99.363281 97.535156 -92.851562 102.328125 -84.46875 C 107.128906 -76.09375 109.53125 -66.425781 109.53125 -55.46875 C 109.53125 -44.625 107.128906 -34.984375 102.328125 -26.546875 C 97.535156 -18.117188 90.738281 -11.585938 81.9375 -6.953125 C 73.144531 -2.316406 62.953125 0 51.359375 0 L 9.796875 0 L 9.796875 -110.953125 Z M 49.625 -23.390625 C 59.84375 -23.390625 67.796875 -26.179688 73.484375 -31.765625 C 79.179688 -37.347656 82.03125 -45.25 82.03125 -55.46875 C 82.03125 -65.695312 79.179688 -73.65625 73.484375 -79.34375 C 67.796875 -85.03125 59.84375 -87.875 49.625 -87.875 L 36.828125 -87.875 L 36.828125 -23.390625 Z M 49.625 -23.390625 "/></g></g></g><g fill="#000000" fill-opacity="1"><g transform="translate(954.934849, 289.920802)"><g><path d="M 36.828125 -89.296875 L 36.828125 -66.859375 L 73.015625 -66.859375 L 73.015625 -45.984375 L 36.828125 -45.984375 L 36.828125 -21.65625 L 77.765625 -21.65625 L 77.765625 0 L 9.796875 0 L 9.796875 -110.953125 L 77.765625 -110.953125 L 77.765625 -89.296875 Z M 36.828125 -89.296875 "/></g></g></g><g fill="#000000" fill-opacity="1"><g transform="translate(1040.439, 289.920802)"><g/></g></g><g fill="#000000" fill-opacity="1"><g transform="translate(1073.945248, 289.920802)"><g><path d="M 77.765625 0 L 55.15625 -33.984375 L 35.25 0 L 4.578125 0 L 40.140625 -56.421875 L 3.796875 -110.953125 L 35.25 -110.953125 L 57.53125 -77.4375 L 77.125 -110.953125 L 107.78125 -110.953125 L 72.546875 -55 L 109.203125 0 Z M 77.765625 0 "/></g></g></g><g fill="#000000" fill-opacity="1"><g transform="translate(124.107556, 439.530623)"><g><path d="M 11.5625 -36.875 L 11.5625 -24.390625 L 26.234375 -24.390625 L 26.234375 -18.703125 L 11.5625 -18.703125 L 11.5625 -5.6875 L 28.0625 -5.6875 L 28.0625 0 L 4.578125 0 L 4.578125 -42.546875 L 28.0625 -42.546875 L 28.0625 -36.875 Z M 11.5625 -36.875 "/></g></g></g><g fill="#000000" fill-opacity="1"><g transform="translate(156.136778, 439.530623)"><g><path d="M 19.015625 -17.0625 L 29.890625 0 L 22.015625 0 L 14.734375 -11.4375 L 7.890625 0 L 0.609375 0 L 11.5 -16.5625 L 0.609375 -33.6875 L 8.5 -33.6875 L 15.78125 -22.25 L 22.625 -33.6875 L 29.890625 -33.6875 Z M 19.015625 -17.0625 "/></g></g></g><g fill="#000000" fill-opacity="1"><g transform="translate(186.637877, 439.530623)"><g><path d="M 11.5625 -28.734375 C 12.738281 -30.285156 14.34375 -31.585938 16.375 -32.640625 C 18.414062 -33.703125 20.722656 -34.234375 23.296875 -34.234375 C 26.234375 -34.234375 28.910156 -33.507812 31.328125 -32.0625 C 33.753906 -30.613281 35.660156 -28.585938 37.046875 -25.984375 C 38.429688 -23.378906 39.125 -20.382812 39.125 -17 C 39.125 -13.613281 38.429688 -10.582031 37.046875 -7.90625 C 35.660156 -5.238281 33.753906 -3.160156 31.328125 -1.671875 C 28.910156 -0.191406 26.234375 0.546875 23.296875 0.546875 C 20.722656 0.546875 18.4375 0.03125 16.4375 -1 C 14.445312 -2.039062 12.820312 -3.335938 11.5625 -4.890625 L 11.5625 16.015625 L 4.578125 16.015625 L 4.578125 -33.6875 L 11.5625 -33.6875 Z M 32.03125 -17 C 32.03125 -19.320312 31.550781 -21.328125 30.59375 -23.015625 C 29.632812 -24.710938 28.367188 -26 26.796875 -26.875 C 25.234375 -27.75 23.554688 -28.1875 21.765625 -28.1875 C 20.015625 -28.1875 18.351562 -27.738281 16.78125 -26.84375 C 15.207031 -25.945312 13.941406 -24.640625 12.984375 -22.921875 C 12.035156 -21.210938 11.5625 -19.195312 11.5625 -16.875 C 11.5625 -14.550781 12.035156 -12.519531 12.984375 -10.78125 C 13.941406 -9.050781 15.207031 -7.738281 16.78125 -6.84375 C 18.351562 -5.945312 20.015625 -5.5 21.765625 -5.5 C 23.554688 -5.5 25.234375 -5.957031 26.796875 -6.875 C 28.367188 -7.789062 29.632812 -9.125 30.59375 -10.875 C 31.550781 -12.632812 32.03125 -14.675781 32.03125 -17 Z M 32.03125 -17 "/></g></g></g><g fill="#000000" fill-opacity="1"><g transform="translate(228.080251, 439.530623)"><g><path d="M 11.5625 -45.25 L 11.5625 0 L 4.578125 0 L 4.578125 -45.25 Z M 11.5625 -45.25 "/></g></g></g><g fill="#000000" fill-opacity="1"><g transform="translate(244.217104, 439.530623)"><g><path d="M 19.203125 0.546875 C 16.015625 0.546875 13.132812 -0.175781 10.5625 -1.625 C 8 -3.070312 5.984375 -5.109375 4.515625 -7.734375 C 3.054688 -10.359375 2.328125 -13.40625 2.328125 -16.875 C 2.328125 -20.300781 3.078125 -23.335938 4.578125 -25.984375 C 6.085938 -28.628906 8.144531 -30.664062 10.75 -32.09375 C 13.363281 -33.519531 16.28125 -34.234375 19.5 -34.234375 C 22.71875 -34.234375 25.628906 -33.519531 28.234375 -32.09375 C 30.847656 -30.664062 32.910156 -28.628906 34.421875 -25.984375 C 35.929688 -23.335938 36.6875 -20.300781 36.6875 -16.875 C 36.6875 -13.445312 35.910156 -10.410156 34.359375 -7.765625 C 32.804688 -5.117188 30.695312 -3.070312 28.03125 -1.625 C 25.363281 -0.175781 22.421875 0.546875 19.203125 0.546875 Z M 19.203125 -5.5 C 20.992188 -5.5 22.671875 -5.925781 24.234375 -6.78125 C 25.804688 -7.644531 27.082031 -8.929688 28.0625 -10.640625 C 29.039062 -12.347656 29.53125 -14.425781 29.53125 -16.875 C 29.53125 -19.320312 29.0625 -21.390625 28.125 -23.078125 C 27.1875 -24.773438 25.941406 -26.050781 24.390625 -26.90625 C 22.847656 -27.757812 21.175781 -28.1875 19.375 -28.1875 C 17.582031 -28.1875 15.921875 -27.757812 14.390625 -26.90625 C 12.867188 -26.050781 11.660156 -24.773438 10.765625 -23.078125 C 9.867188 -21.390625 9.421875 -19.320312 9.421875 -16.875 C 9.421875 -13.25 10.347656 -10.445312 12.203125 -8.46875 C 14.054688 -6.488281 16.390625 -5.5 19.203125 -5.5 Z M 19.203125 -5.5 "/></g></g></g><g fill="#000000" fill-opacity="1"><g transform="translate(283.214514, 439.530623)"><g><path d="M 11.5625 -28.796875 C 12.570312 -30.503906 13.921875 -31.835938 15.609375 -32.796875 C 17.304688 -33.753906 19.316406 -34.234375 21.640625 -34.234375 L 21.640625 -27.03125 L 19.875 -27.03125 C 17.144531 -27.03125 15.078125 -26.332031 13.671875 -24.9375 C 12.265625 -23.550781 11.5625 -21.148438 11.5625 -17.734375 L 11.5625 0 L 4.578125 0 L 4.578125 -33.6875 L 11.5625 -33.6875 Z M 11.5625 -28.796875 "/></g></g></g><g fill="#000000" fill-opacity="1"><g transform="translate(306.686305, 439.530623)"><g><path d="M 2.265625 -17 C 2.265625 -20.382812 2.96875 -23.378906 4.375 -25.984375 C 5.78125 -28.585938 7.691406 -30.613281 10.109375 -32.0625 C 12.535156 -33.507812 15.21875 -34.234375 18.15625 -34.234375 C 20.8125 -34.234375 23.125 -33.710938 25.09375 -32.671875 C 27.070312 -31.640625 28.65625 -30.347656 29.84375 -28.796875 L 29.84375 -33.6875 L 36.875 -33.6875 L 36.875 0 L 29.84375 0 L 29.84375 -5.015625 C 28.65625 -3.421875 27.039062 -2.09375 25 -1.03125 C 22.96875 0.0195312 20.644531 0.546875 18.03125 0.546875 C 15.144531 0.546875 12.5 -0.191406 10.09375 -1.671875 C 7.6875 -3.160156 5.78125 -5.238281 4.375 -7.90625 C 2.96875 -10.582031 2.265625 -13.613281 2.265625 -17 Z M 29.84375 -16.875 C 29.84375 -19.195312 29.363281 -21.210938 28.40625 -22.921875 C 27.445312 -24.640625 26.191406 -25.945312 24.640625 -26.84375 C 23.085938 -27.738281 21.414062 -28.1875 19.625 -28.1875 C 17.832031 -28.1875 16.160156 -27.75 14.609375 -26.875 C 13.066406 -26 11.816406 -24.710938 10.859375 -23.015625 C 9.898438 -21.328125 9.421875 -19.320312 9.421875 -17 C 9.421875 -14.675781 9.898438 -12.632812 10.859375 -10.875 C 11.816406 -9.125 13.078125 -7.789062 14.640625 -6.875 C 16.210938 -5.957031 17.875 -5.5 19.625 -5.5 C 21.414062 -5.5 23.085938 -5.945312 24.640625 -6.84375 C 26.191406 -7.738281 27.445312 -9.050781 28.40625 -10.78125 C 29.363281 -12.519531 29.84375 -14.550781 29.84375 -16.875 Z M 29.84375 -16.875 "/></g></g></g><g fill="#000000" fill-opacity="1"><g transform="translate(348.128679, 439.530623)"><g/></g></g><g fill="#000000" fill-opacity="1"><g transform="translate(364.021047, 439.530623)"><g><path d="M 16.8125 0.546875 C 14.164062 0.546875 11.789062 0.0664062 9.6875 -0.890625 C 7.59375 -1.847656 5.929688 -3.148438 4.703125 -4.796875 C 3.484375 -6.453125 2.832031 -8.296875 2.75 -10.328125 L 9.96875 -10.328125 C 10.09375 -8.898438 10.773438 -7.707031 12.015625 -6.75 C 13.253906 -5.789062 14.8125 -5.3125 16.6875 -5.3125 C 18.644531 -5.3125 20.160156 -5.6875 21.234375 -6.4375 C 22.316406 -7.195312 22.859375 -8.171875 22.859375 -9.359375 C 22.859375 -10.617188 22.257812 -11.550781 21.0625 -12.15625 C 19.863281 -12.769531 17.957031 -13.445312 15.34375 -14.1875 C 12.820312 -14.875 10.765625 -15.546875 9.171875 -16.203125 C 7.578125 -16.859375 6.195312 -17.859375 5.03125 -19.203125 C 3.875 -20.546875 3.296875 -22.316406 3.296875 -24.515625 C 3.296875 -26.304688 3.828125 -27.945312 4.890625 -29.4375 C 5.953125 -30.925781 7.46875 -32.097656 9.4375 -32.953125 C 11.414062 -33.804688 13.691406 -34.234375 16.265625 -34.234375 C 20.097656 -34.234375 23.1875 -33.265625 25.53125 -31.328125 C 27.875 -29.398438 29.125 -26.765625 29.28125 -23.421875 L 22.3125 -23.421875 C 22.195312 -24.921875 21.585938 -26.117188 20.484375 -27.015625 C 19.378906 -27.921875 17.890625 -28.375 16.015625 -28.375 C 14.179688 -28.375 12.773438 -28.023438 11.796875 -27.328125 C 10.816406 -26.640625 10.328125 -25.722656 10.328125 -24.578125 C 10.328125 -23.679688 10.65625 -22.925781 11.3125 -22.3125 C 11.96875 -21.707031 12.765625 -21.226562 13.703125 -20.875 C 14.640625 -20.53125 16.023438 -20.09375 17.859375 -19.5625 C 20.296875 -18.914062 22.300781 -18.253906 23.875 -17.578125 C 25.445312 -16.898438 26.800781 -15.910156 27.9375 -14.609375 C 29.082031 -13.304688 29.675781 -11.578125 29.71875 -9.421875 C 29.71875 -7.503906 29.1875 -5.789062 28.125 -4.28125 C 27.0625 -2.769531 25.5625 -1.585938 23.625 -0.734375 C 21.695312 0.117188 19.425781 0.546875 16.8125 0.546875 Z M 16.8125 0.546875 "/></g></g></g><g fill="#000000" fill-opacity="1"><g transform="translate(396.661505, 439.530623)"><g><path d="M 8.125 -38.15625 C 6.863281 -38.15625 5.804688 -38.582031 4.953125 -39.4375 C 4.097656 -40.289062 3.671875 -41.347656 3.671875 -42.609375 C 3.671875 -43.878906 4.097656 -44.941406 4.953125 -45.796875 C 5.804688 -46.648438 6.863281 -47.078125 8.125 -47.078125 C 9.351562 -47.078125 10.394531 -46.648438 11.25 -45.796875 C 12.101562 -44.941406 12.53125 -43.878906 12.53125 -42.609375 C 12.53125 -41.347656 12.101562 -40.289062 11.25 -39.4375 C 10.394531 -38.582031 9.351562 -38.15625 8.125 -38.15625 Z M 11.5625 -33.6875 L 11.5625 0 L 4.578125 0 L 4.578125 -33.6875 Z M 11.5625 -33.6875 "/></g></g></g><g fill="#000000" fill-opacity="1"><g transform="translate(412.798358, 439.530623)"><g><path d="M 21.578125 -34.234375 C 24.234375 -34.234375 26.609375 -33.679688 28.703125 -32.578125 C 30.804688 -31.484375 32.445312 -29.851562 33.625 -27.6875 C 34.8125 -25.53125 35.40625 -22.925781 35.40625 -19.875 L 35.40625 0 L 28.484375 0 L 28.484375 -18.828125 C 28.484375 -21.847656 27.726562 -24.160156 26.21875 -25.765625 C 24.71875 -27.378906 22.660156 -28.1875 20.046875 -28.1875 C 17.441406 -28.1875 15.375 -27.378906 13.84375 -25.765625 C 12.320312 -24.160156 11.5625 -21.847656 11.5625 -18.828125 L 11.5625 0 L 4.578125 0 L 4.578125 -33.6875 L 11.5625 -33.6875 L 11.5625 -29.84375 C 12.695312 -31.226562 14.148438 -32.304688 15.921875 -33.078125 C 17.703125 -33.847656 19.585938 -34.234375 21.578125 -34.234375 Z M 21.578125 -34.234375 "/></g></g></g><g fill="#000000" fill-opacity="1"><g transform="translate(452.468124, 439.530623)"><g/></g></g><g fill="#000000" fill-opacity="1"><g transform="translate(468.360493, 439.530623)"><g><path d="M 11.5625 -45.25 L 11.5625 0 L 4.578125 0 L 4.578125 -45.25 Z M 11.5625 -45.25 "/></g></g></g><g fill="#000000" fill-opacity="1"><g transform="translate(484.497346, 439.530623)"><g><path d="M 11.5625 -33.6875 L 11.5625 0 L 4.578125 0 L 4.578125 -33.6875 Z M 14.375 -42.734375 L 0.859375 -36.078125 L 0.859375 -41.203125 L 14.375 -48.671875 Z M 14.375 -42.734375 "/></g></g></g><g fill="#000000" fill-opacity="1"><g transform="translate(500.6342, 439.530623)"><g><path d="M 45.359375 -34.234375 C 48.015625 -34.234375 50.390625 -33.679688 52.484375 -32.578125 C 54.585938 -31.484375 56.238281 -29.851562 57.4375 -27.6875 C 58.644531 -25.53125 59.25 -22.925781 59.25 -19.875 L 59.25 0 L 52.34375 0 L 52.34375 -18.828125 C 52.34375 -21.847656 51.585938 -24.160156 50.078125 -25.765625 C 48.566406 -27.378906 46.507812 -28.1875 43.90625 -28.1875 C 41.289062 -28.1875 39.21875 -27.378906 37.6875 -25.765625 C 36.164062 -24.160156 35.40625 -21.847656 35.40625 -18.828125 L 35.40625 0 L 28.484375 0 L 28.484375 -18.828125 C 28.484375 -21.847656 27.726562 -24.160156 26.21875 -25.765625 C 24.71875 -27.378906 22.660156 -28.1875 20.046875 -28.1875 C 17.441406 -28.1875 15.375 -27.378906 13.84375 -25.765625 C 12.320312 -24.160156 11.5625 -21.847656 11.5625 -18.828125 L 11.5625 0 L 4.578125 0 L 4.578125 -33.6875 L 11.5625 -33.6875 L 11.5625 -29.84375 C 12.695312 -31.226562 14.140625 -32.304688 15.890625 -33.078125 C 17.648438 -33.847656 19.523438 -34.234375 21.515625 -34.234375 C 24.210938 -34.234375 26.617188 -33.660156 28.734375 -32.515625 C 30.859375 -31.378906 32.488281 -29.734375 33.625 -27.578125 C 34.644531 -29.609375 36.234375 -31.222656 38.390625 -32.421875 C 40.554688 -33.628906 42.878906 -34.234375 45.359375 -34.234375 Z M 45.359375 -34.234375 "/></g></g></g><g fill="#000000" fill-opacity="1"><g transform="translate(564.142485, 439.530623)"><g><path d="M 8.125 -38.15625 C 6.863281 -38.15625 5.804688 -38.582031 4.953125 -39.4375 C 4.097656 -40.289062 3.671875 -41.347656 3.671875 -42.609375 C 3.671875 -43.878906 4.097656 -44.941406 4.953125 -45.796875 C 5.804688 -46.648438 6.863281 -47.078125 8.125 -47.078125 C 9.351562 -47.078125 10.394531 -46.648438 11.25 -45.796875 C 12.101562 -44.941406 12.53125 -43.878906 12.53125 -42.609375 C 12.53125 -41.347656 12.101562 -40.289062 11.25 -39.4375 C 10.394531 -38.582031 9.351562 -38.15625 8.125 -38.15625 Z M 11.5625 -33.6875 L 11.5625 0 L 4.578125 0 L 4.578125 -33.6875 Z M 11.5625 -33.6875 "/></g></g></g><g fill="#000000" fill-opacity="1"><g transform="translate(580.279317, 439.530623)"><g><path d="M 12.71875 -28 L 12.71875 -9.359375 C 12.71875 -8.085938 13.007812 -7.175781 13.59375 -6.625 C 14.1875 -6.082031 15.195312 -5.8125 16.625 -5.8125 L 20.90625 -5.8125 L 20.90625 0 L 15.40625 0 C 12.269531 0 9.863281 -0.734375 8.1875 -2.203125 C 6.519531 -3.671875 5.6875 -6.054688 5.6875 -9.359375 L 5.6875 -28 L 1.71875 -28 L 1.71875 -33.6875 L 5.6875 -33.6875 L 5.6875 -42.0625 L 12.71875 -42.0625 L 12.71875 -33.6875 L 20.90625 -33.6875 L 20.90625 -28 Z M 12.71875 -28 "/></g></g></g><g fill="#000000" fill-opacity="1"><g transform="translate(603.017608, 439.530623)"><g><path d="M 35.46875 -17.671875 C 35.46875 -16.410156 35.382812 -15.269531 35.21875 -14.25 L 9.484375 -14.25 C 9.679688 -11.550781 10.675781 -9.382812 12.46875 -7.75 C 14.257812 -6.125 16.460938 -5.3125 19.078125 -5.3125 C 22.828125 -5.3125 25.476562 -6.882812 27.03125 -10.03125 L 34.546875 -10.03125 C 33.523438 -6.925781 31.675781 -4.382812 29 -2.40625 C 26.332031 -0.4375 23.023438 0.546875 19.078125 0.546875 C 15.859375 0.546875 12.972656 -0.175781 10.421875 -1.625 C 7.878906 -3.070312 5.882812 -5.109375 4.4375 -7.734375 C 2.988281 -10.359375 2.265625 -13.40625 2.265625 -16.875 C 2.265625 -20.34375 2.96875 -23.390625 4.375 -26.015625 C 5.78125 -28.640625 7.753906 -30.664062 10.296875 -32.09375 C 12.847656 -33.519531 15.773438 -34.234375 19.078125 -34.234375 C 22.253906 -34.234375 25.082031 -33.539062 27.5625 -32.15625 C 30.050781 -30.769531 31.988281 -28.820312 33.375 -26.3125 C 34.769531 -23.8125 35.46875 -20.929688 35.46875 -17.671875 Z M 28.1875 -19.875 C 28.144531 -22.4375 27.226562 -24.492188 25.4375 -26.046875 C 23.644531 -27.597656 21.421875 -28.375 18.765625 -28.375 C 16.359375 -28.375 14.300781 -27.609375 12.59375 -26.078125 C 10.882812 -24.546875 9.863281 -22.476562 9.53125 -19.875 Z M 28.1875 -19.875 "/></g></g></g><g fill="#000000" fill-opacity="1"><g transform="translate(640.731402, 439.530623)"><g><path d="M 16.8125 0.546875 C 14.164062 0.546875 11.789062 0.0664062 9.6875 -0.890625 C 7.59375 -1.847656 5.929688 -3.148438 4.703125 -4.796875 C 3.484375 -6.453125 2.832031 -8.296875 2.75 -10.328125 L 9.96875 -10.328125 C 10.09375 -8.898438 10.773438 -7.707031 12.015625 -6.75 C 13.253906 -5.789062 14.8125 -5.3125 16.6875 -5.3125 C 18.644531 -5.3125 20.160156 -5.6875 21.234375 -6.4375 C 22.316406 -7.195312 22.859375 -8.171875 22.859375 -9.359375 C 22.859375 -10.617188 22.257812 -11.550781 21.0625 -12.15625 C 19.863281 -12.769531 17.957031 -13.445312 15.34375 -14.1875 C 12.820312 -14.875 10.765625 -15.546875 9.171875 -16.203125 C 7.578125 -16.859375 6.195312 -17.859375 5.03125 -19.203125 C 3.875 -20.546875 3.296875 -22.316406 3.296875 -24.515625 C 3.296875 -26.304688 3.828125 -27.945312 4.890625 -29.4375 C 5.953125 -30.925781 7.46875 -32.097656 9.4375 -32.953125 C 11.414062 -33.804688 13.691406 -34.234375 16.265625 -34.234375 C 20.097656 -34.234375 23.1875 -33.265625 25.53125 -31.328125 C 27.875 -29.398438 29.125 -26.765625 29.28125 -23.421875 L 22.3125 -23.421875 C 22.195312 -24.921875 21.585938 -26.117188 20.484375 -27.015625 C 19.378906 -27.921875 17.890625 -28.375 16.015625 -28.375 C 14.179688 -28.375 12.773438 -28.023438 11.796875 -27.328125 C 10.816406 -26.640625 10.328125 -25.722656 10.328125 -24.578125 C 10.328125 -23.679688 10.65625 -22.925781 11.3125 -22.3125 C 11.96875 -21.707031 12.765625 -21.226562 13.703125 -20.875 C 14.640625 -20.53125 16.023438 -20.09375 17.859375 -19.5625 C 20.296875 -18.914062 22.300781 -18.253906 23.875 -17.578125 C 25.445312 -16.898438 26.800781 -15.910156 27.9375 -14.609375 C 29.082031 -13.304688 29.675781 -11.578125 29.71875 -9.421875 C 29.71875 -7.503906 29.1875 -5.789062 28.125 -4.28125 C 27.0625 -2.769531 25.5625 -1.585938 23.625 -0.734375 C 21.695312 0.117188 19.425781 0.546875 16.8125 0.546875 Z M 16.8125 0.546875 "/></g></g></g><g fill="#000000" fill-opacity="1"><g transform="translate(673.371881, 439.530623)"><g><path d="M 12.234375 -8.375 L 4.828125 8.5 L 0.3125 8.5 L 4.640625 -8.375 Z M 12.234375 -8.375 "/></g></g></g><g fill="#000000" fill-opacity="1"><g transform="translate(687.124914, 439.530623)"><g/></g></g><g fill="#000000" fill-opacity="1"><g transform="translate(703.01726, 439.530623)"><g><path d="M 2.265625 -17 C 2.265625 -20.382812 2.96875 -23.378906 4.375 -25.984375 C 5.78125 -28.585938 7.691406 -30.613281 10.109375 -32.0625 C 12.535156 -33.507812 15.21875 -34.234375 18.15625 -34.234375 C 20.8125 -34.234375 23.125 -33.710938 25.09375 -32.671875 C 27.070312 -31.640625 28.65625 -30.347656 29.84375 -28.796875 L 29.84375 -33.6875 L 36.875 -33.6875 L 36.875 0 L 29.84375 0 L 29.84375 -5.015625 C 28.65625 -3.421875 27.039062 -2.09375 25 -1.03125 C 22.96875 0.0195312 20.644531 0.546875 18.03125 0.546875 C 15.144531 0.546875 12.5 -0.191406 10.09375 -1.671875 C 7.6875 -3.160156 5.78125 -5.238281 4.375 -7.90625 C 2.96875 -10.582031 2.265625 -13.613281 2.265625 -17 Z M 29.84375 -16.875 C 29.84375 -19.195312 29.363281 -21.210938 28.40625 -22.921875 C 27.445312 -24.640625 26.191406 -25.945312 24.640625 -26.84375 C 23.085938 -27.738281 21.414062 -28.1875 19.625 -28.1875 C 17.832031 -28.1875 16.160156 -27.75 14.609375 -26.875 C 13.066406 -26 11.816406 -24.710938 10.859375 -23.015625 C 9.898438 -21.328125 9.421875 -19.320312 9.421875 -17 C 9.421875 -14.675781 9.898438 -12.632812 10.859375 -10.875 C 11.816406 -9.125 13.078125 -7.789062 14.640625 -6.875 C 16.210938 -5.957031 17.875 -5.5 19.625 -5.5 C 21.414062 -5.5 23.085938 -5.945312 24.640625 -6.84375 C 26.191406 -7.738281 27.445312 -9.050781 28.40625 -10.78125 C 29.363281 -12.519531 29.84375 -14.550781 29.84375 -16.875 Z M 29.84375 -16.875 "/></g></g></g><g fill="#000000" fill-opacity="1"><g transform="translate(744.459612, 439.530623)"><g><path d="M 11.5625 -28.734375 C 12.738281 -30.285156 14.34375 -31.585938 16.375 -32.640625 C 18.414062 -33.703125 20.722656 -34.234375 23.296875 -34.234375 C 26.234375 -34.234375 28.910156 -33.507812 31.328125 -32.0625 C 33.753906 -30.613281 35.660156 -28.585938 37.046875 -25.984375 C 38.429688 -23.378906 39.125 -20.382812 39.125 -17 C 39.125 -13.613281 38.429688 -10.582031 37.046875 -7.90625 C 35.660156 -5.238281 33.753906 -3.160156 31.328125 -1.671875 C 28.910156 -0.191406 26.234375 0.546875 23.296875 0.546875 C 20.722656 0.546875 18.4375 0.03125 16.4375 -1 C 14.445312 -2.039062 12.820312 -3.335938 11.5625 -4.890625 L 11.5625 16.015625 L 4.578125 16.015625 L 4.578125 -33.6875 L 11.5625 -33.6875 Z M 32.03125 -17 C 32.03125 -19.320312 31.550781 -21.328125 30.59375 -23.015625 C 29.632812 -24.710938 28.367188 -26 26.796875 -26.875 C 25.234375 -27.75 23.554688 -28.1875 21.765625 -28.1875 C 20.015625 -28.1875 18.351562 -27.738281 16.78125 -26.84375 C 15.207031 -25.945312 13.941406 -24.640625 12.984375 -22.921875 C 12.035156 -21.210938 11.5625 -19.195312 11.5625 -16.875 C 11.5625 -14.550781 12.035156 -12.519531 12.984375 -10.78125 C 13.941406 -9.050781 15.207031 -7.738281 16.78125 -6.84375 C 18.351562 -5.945312 20.015625 -5.5 21.765625 -5.5 C 23.554688 -5.5 25.234375 -5.957031 26.796875 -6.875 C 28.367188 -7.789062 29.632812 -9.125 30.59375 -10.875 C 31.550781 -12.632812 32.03125 -14.675781 32.03125 -17 Z M 32.03125 -17 "/></g></g></g><g fill="#000000" fill-opacity="1"><g transform="translate(785.901964, 439.530623)"><g><path d="M 11.5625 -28.796875 C 12.570312 -30.503906 13.921875 -31.835938 15.609375 -32.796875 C 17.304688 -33.753906 19.316406 -34.234375 21.640625 -34.234375 L 21.640625 -27.03125 L 19.875 -27.03125 C 17.144531 -27.03125 15.078125 -26.332031 13.671875 -24.9375 C 12.265625 -23.550781 11.5625 -21.148438 11.5625 -17.734375 L 11.5625 0 L 4.578125 0 L 4.578125 -33.6875 L 11.5625 -33.6875 Z M 11.5625 -28.796875 "/></g></g></g><g fill="#000000" fill-opacity="1"><g transform="translate(809.373755, 439.530623)"><g><path d="M 35.46875 -17.671875 C 35.46875 -16.410156 35.382812 -15.269531 35.21875 -14.25 L 9.484375 -14.25 C 9.679688 -11.550781 10.675781 -9.382812 12.46875 -7.75 C 14.257812 -6.125 16.460938 -5.3125 19.078125 -5.3125 C 22.828125 -5.3125 25.476562 -6.882812 27.03125 -10.03125 L 34.546875 -10.03125 C 33.523438 -6.925781 31.675781 -4.382812 29 -2.40625 C 26.332031 -0.4375 23.023438 0.546875 19.078125 0.546875 C 15.859375 0.546875 12.972656 -0.175781 10.421875 -1.625 C 7.878906 -3.070312 5.882812 -5.109375 4.4375 -7.734375 C 2.988281 -10.359375 2.265625 -13.40625 2.265625 -16.875 C 2.265625 -20.34375 2.96875 -23.390625 4.375 -26.015625 C 5.78125 -28.640625 7.753906 -30.664062 10.296875 -32.09375 C 12.847656 -33.519531 15.773438 -34.234375 19.078125 -34.234375 C 22.253906 -34.234375 25.082031 -33.539062 27.5625 -32.15625 C 30.050781 -30.769531 31.988281 -28.820312 33.375 -26.3125 C 34.769531 -23.8125 35.46875 -20.929688 35.46875 -17.671875 Z M 28.1875 -19.875 C 28.144531 -22.4375 27.226562 -24.492188 25.4375 -26.046875 C 23.644531 -27.597656 21.421875 -28.375 18.765625 -28.375 C 16.359375 -28.375 14.300781 -27.609375 12.59375 -26.078125 C 10.882812 -24.546875 9.863281 -22.476562 9.53125 -19.875 Z M 28.1875 -19.875 "/></g></g></g><g fill="#000000" fill-opacity="1"><g transform="translate(847.087549, 439.530623)"><g><path d="M 21.578125 -34.234375 C 24.234375 -34.234375 26.609375 -33.679688 28.703125 -32.578125 C 30.804688 -31.484375 32.445312 -29.851562 33.625 -27.6875 C 34.8125 -25.53125 35.40625 -22.925781 35.40625 -19.875 L 35.40625 0 L 28.484375 0 L 28.484375 -18.828125 C 28.484375 -21.847656 27.726562 -24.160156 26.21875 -25.765625 C 24.71875 -27.378906 22.660156 -28.1875 20.046875 -28.1875 C 17.441406 -28.1875 15.375 -27.378906 13.84375 -25.765625 C 12.320312 -24.160156 11.5625 -21.847656 11.5625 -18.828125 L 11.5625 0 L 4.578125 0 L 4.578125 -33.6875 L 11.5625 -33.6875 L 11.5625 -29.84375 C 12.695312 -31.226562 14.148438 -32.304688 15.921875 -33.078125 C 17.703125 -33.847656 19.585938 -34.234375 21.578125 -34.234375 Z M 21.578125 -34.234375 "/></g></g></g><g fill="#000000" fill-opacity="1"><g transform="translate(886.75736, 439.530623)"><g><path d="M 2.265625 -17 C 2.265625 -20.382812 2.96875 -23.378906 4.375 -25.984375 C 5.78125 -28.585938 7.691406 -30.613281 10.109375 -32.0625 C 12.535156 -33.507812 15.238281 -34.234375 18.21875 -34.234375 C 20.414062 -34.234375 22.582031 -33.753906 24.71875 -32.796875 C 26.863281 -31.835938 28.570312 -30.566406 29.84375 -28.984375 L 29.84375 -45.25 L 36.875 -45.25 L 36.875 0 L 29.84375 0 L 29.84375 -5.078125 C 28.695312 -3.441406 27.113281 -2.09375 25.09375 -1.03125 C 23.082031 0.0195312 20.769531 0.546875 18.15625 0.546875 C 15.21875 0.546875 12.535156 -0.191406 10.109375 -1.671875 C 7.691406 -3.160156 5.78125 -5.238281 4.375 -7.90625 C 2.96875 -10.582031 2.265625 -13.613281 2.265625 -17 Z M 29.84375 -16.875 C 29.84375 -19.195312 29.363281 -21.210938 28.40625 -22.921875 C 27.445312 -24.640625 26.191406 -25.945312 24.640625 -26.84375 C 23.085938 -27.738281 21.414062 -28.1875 19.625 -28.1875 C 17.832031 -28.1875 16.160156 -27.75 14.609375 -26.875 C 13.066406 -26 11.816406 -24.710938 10.859375 -23.015625 C 9.898438 -21.328125 9.421875 -19.320312 9.421875 -17 C 9.421875 -14.675781 9.898438 -12.632812 10.859375 -10.875 C 11.816406 -9.125 13.078125 -7.789062 14.640625 -6.875 C 16.210938 -5.957031 17.875 -5.5 19.625 -5.5 C 21.414062 -5.5 23.085938 -5.945312 24.640625 -6.84375 C 26.191406 -7.738281 27.445312 -9.050781 28.40625 -10.78125 C 29.363281 -12.519531 29.84375 -14.550781 29.84375 -16.875 Z M 29.84375 -16.875 "/></g></g></g><g fill="#000000" fill-opacity="1"><g transform="translate(928.199712, 439.530623)"><g><path d="M 35.46875 -17.671875 C 35.46875 -16.410156 35.382812 -15.269531 35.21875 -14.25 L 9.484375 -14.25 C 9.679688 -11.550781 10.675781 -9.382812 12.46875 -7.75 C 14.257812 -6.125 16.460938 -5.3125 19.078125 -5.3125 C 22.828125 -5.3125 25.476562 -6.882812 27.03125 -10.03125 L 34.546875 -10.03125 C 33.523438 -6.925781 31.675781 -4.382812 29 -2.40625 C 26.332031 -0.4375 23.023438 0.546875 19.078125 0.546875 C 15.859375 0.546875 12.972656 -0.175781 10.421875 -1.625 C 7.878906 -3.070312 5.882812 -5.109375 4.4375 -7.734375 C 2.988281 -10.359375 2.265625 -13.40625 2.265625 -16.875 C 2.265625 -20.34375 2.96875 -23.390625 4.375 -26.015625 C 5.78125 -28.640625 7.753906 -30.664062 10.296875 -32.09375 C 12.847656 -33.519531 15.773438 -34.234375 19.078125 -34.234375 C 22.253906 -34.234375 25.082031 -33.539062 27.5625 -32.15625 C 30.050781 -30.769531 31.988281 -28.820312 33.375 -26.3125 C 34.769531 -23.8125 35.46875 -20.929688 35.46875 -17.671875 Z M 28.1875 -19.875 C 28.144531 -22.4375 27.226562 -24.492188 25.4375 -26.046875 C 23.644531 -27.597656 21.421875 -28.375 18.765625 -28.375 C 16.359375 -28.375 14.300781 -27.609375 12.59375 -26.078125 C 10.882812 -24.546875 9.863281 -22.476562 9.53125 -19.875 Z M 28.1875 -19.875 "/></g></g></g><g fill="#000000" fill-opacity="1"><g transform="translate(965.913463, 439.530623)"><g/></g></g><g fill="#000000" fill-opacity="1"><g transform="translate(981.805809, 439.530623)"><g><path d="M 2.265625 -16.875 C 2.265625 -20.34375 2.96875 -23.390625 4.375 -26.015625 C 5.78125 -28.640625 7.722656 -30.664062 10.203125 -32.09375 C 12.691406 -33.519531 15.546875 -34.234375 18.765625 -34.234375 C 22.847656 -34.234375 26.222656 -33.265625 28.890625 -31.328125 C 31.554688 -29.398438 33.359375 -26.640625 34.296875 -23.046875 L 26.78125 -23.046875 C 26.164062 -24.722656 25.1875 -26.03125 23.84375 -26.96875 C 22.5 -27.90625 20.804688 -28.375 18.765625 -28.375 C 15.910156 -28.375 13.640625 -27.363281 11.953125 -25.34375 C 10.265625 -23.320312 9.421875 -20.5 9.421875 -16.875 C 9.421875 -13.25 10.265625 -10.414062 11.953125 -8.375 C 13.640625 -6.332031 15.910156 -5.3125 18.765625 -5.3125 C 22.804688 -5.3125 25.476562 -7.085938 26.78125 -10.640625 L 34.296875 -10.640625 C 33.316406 -7.210938 31.484375 -4.488281 28.796875 -2.46875 C 26.109375 -0.457031 22.765625 0.546875 18.765625 0.546875 C 15.546875 0.546875 12.691406 -0.175781 10.203125 -1.625 C 7.722656 -3.070312 5.78125 -5.109375 4.375 -7.734375 C 2.96875 -10.359375 2.265625 -13.40625 2.265625 -16.875 Z M 2.265625 -16.875 "/></g></g></g><g fill="#000000" fill-opacity="1"><g transform="translate(1018.480475, 439.530623)"><g><path d="M 19.203125 0.546875 C 16.015625 0.546875 13.132812 -0.175781 10.5625 -1.625 C 8 -3.070312 5.984375 -5.109375 4.515625 -7.734375 C 3.054688 -10.359375 2.328125 -13.40625 2.328125 -16.875 C 2.328125 -20.300781 3.078125 -23.335938 4.578125 -25.984375 C 6.085938 -28.628906 8.144531 -30.664062 10.75 -32.09375 C 13.363281 -33.519531 16.28125 -34.234375 19.5 -34.234375 C 22.71875 -34.234375 25.628906 -33.519531 28.234375 -32.09375 C 30.847656 -30.664062 32.910156 -28.628906 34.421875 -25.984375 C 35.929688 -23.335938 36.6875 -20.300781 36.6875 -16.875 C 36.6875 -13.445312 35.910156 -10.410156 34.359375 -7.765625 C 32.804688 -5.117188 30.695312 -3.070312 28.03125 -1.625 C 25.363281 -0.175781 22.421875 0.546875 19.203125 0.546875 Z M 19.203125 -5.5 C 20.992188 -5.5 22.671875 -5.925781 24.234375 -6.78125 C 25.804688 -7.644531 27.082031 -8.929688 28.0625 -10.640625 C 29.039062 -12.347656 29.53125 -14.425781 29.53125 -16.875 C 29.53125 -19.320312 29.0625 -21.390625 28.125 -23.078125 C 27.1875 -24.773438 25.941406 -26.050781 24.390625 -26.90625 C 22.847656 -27.757812 21.175781 -28.1875 19.375 -28.1875 C 17.582031 -28.1875 15.921875 -27.757812 14.390625 -26.90625 C 12.867188 -26.050781 11.660156 -24.773438 10.765625 -23.078125 C 9.867188 -21.390625 9.421875 -19.320312 9.421875 -16.875 C 9.421875 -13.25 10.347656 -10.445312 12.203125 -8.46875 C 14.054688 -6.488281 16.390625 -5.5 19.203125 -5.5 Z M 19.203125 -5.5 "/></g></g></g><g fill="#000000" fill-opacity="1"><g transform="translate(1057.477884, 439.530623)"><g><path d="M 21.578125 -34.234375 C 24.234375 -34.234375 26.609375 -33.679688 28.703125 -32.578125 C 30.804688 -31.484375 32.445312 -29.851562 33.625 -27.6875 C 34.8125 -25.53125 35.40625 -22.925781 35.40625 -19.875 L 35.40625 0 L 28.484375 0 L 28.484375 -18.828125 C 28.484375 -21.847656 27.726562 -24.160156 26.21875 -25.765625 C 24.71875 -27.378906 22.660156 -28.1875 20.046875 -28.1875 C 17.441406 -28.1875 15.375 -27.378906 13.84375 -25.765625 C 12.320312 -24.160156 11.5625 -21.847656 11.5625 -18.828125 L 11.5625 0 L 4.578125 0 L 4.578125 -33.6875 L 11.5625 -33.6875 L 11.5625 -29.84375 C 12.695312 -31.226562 14.148438 -32.304688 15.921875 -33.078125 C 17.703125 -33.847656 19.585938 -34.234375 21.578125 -34.234375 Z M 21.578125 -34.234375 "/></g></g></g><g fill="#000000" fill-opacity="1"><g transform="translate(1097.147695, 439.530623)"><g/></g></g><g fill="#000000" fill-opacity="1"><g transform="translate(1113.040041, 439.530623)"><g><path d="M 11.5625 -28.734375 C 12.738281 -30.285156 14.34375 -31.585938 16.375 -32.640625 C 18.414062 -33.703125 20.722656 -34.234375 23.296875 -34.234375 C 26.234375 -34.234375 28.910156 -33.507812 31.328125 -32.0625 C 33.753906 -30.613281 35.660156 -28.585938 37.046875 -25.984375 C 38.429688 -23.378906 39.125 -20.382812 39.125 -17 C 39.125 -13.613281 38.429688 -10.582031 37.046875 -7.90625 C 35.660156 -5.238281 33.753906 -3.160156 31.328125 -1.671875 C 28.910156 -0.191406 26.234375 0.546875 23.296875 0.546875 C 20.722656 0.546875 18.4375 0.03125 16.4375 -1 C 14.445312 -2.039062 12.820312 -3.335938 11.5625 -4.890625 L 11.5625 16.015625 L 4.578125 16.015625 L 4.578125 -33.6875 L 11.5625 -33.6875 Z M 32.03125 -17 C 32.03125 -19.320312 31.550781 -21.328125 30.59375 -23.015625 C 29.632812 -24.710938 28.367188 -26 26.796875 -26.875 C 25.234375 -27.75 23.554688 -28.1875 21.765625 -28.1875 C 20.015625 -28.1875 18.351562 -27.738281 16.78125 -26.84375 C 15.207031 -25.945312 13.941406 -24.640625 12.984375 -22.921875 C 12.035156 -21.210938 11.5625 -19.195312 11.5625 -16.875 C 11.5625 -14.550781 12.035156 -12.519531 12.984375 -10.78125 C 13.941406 -9.050781 15.207031 -7.738281 16.78125 -6.84375 C 18.351562 -5.945312 20.015625 -5.5 21.765625 -5.5 C 23.554688 -5.5 25.234375 -5.957031 26.796875 -6.875 C 28.367188 -7.789062 29.632812 -9.125 30.59375 -10.875 C 31.550781 -12.632812 32.03125 -14.675781 32.03125 -17 Z M 32.03125 -17 "/></g></g></g><g fill="#000000" fill-opacity="1"><g transform="translate(1154.482393, 439.530623)"><g><path d="M 2.265625 -17 C 2.265625 -20.382812 2.96875 -23.378906 4.375 -25.984375 C 5.78125 -28.585938 7.691406 -30.613281 10.109375 -32.0625 C 12.535156 -33.507812 15.21875 -34.234375 18.15625 -34.234375 C 20.8125 -34.234375 23.125 -33.710938 25.09375 -32.671875 C 27.070312 -31.640625 28.65625 -30.347656 29.84375 -28.796875 L 29.84375 -33.6875 L 36.875 -33.6875 L 36.875 0 L 29.84375 0 L 29.84375 -5.015625 C 28.65625 -3.421875 27.039062 -2.09375 25 -1.03125 C 22.96875 0.0195312 20.644531 0.546875 18.03125 0.546875 C 15.144531 0.546875 12.5 -0.191406 10.09375 -1.671875 C 7.6875 -3.160156 5.78125 -5.238281 4.375 -7.90625 C 2.96875 -10.582031 2.265625 -13.613281 2.265625 -17 Z M 29.84375 -16.875 C 29.84375 -19.195312 29.363281 -21.210938 28.40625 -22.921875 C 27.445312 -24.640625 26.191406 -25.945312 24.640625 -26.84375 C 23.085938 -27.738281 21.414062 -28.1875 19.625 -28.1875 C 17.832031 -28.1875 16.160156 -27.75 14.609375 -26.875 C 13.066406 -26 11.816406 -24.710938 10.859375 -23.015625 C 9.898438 -21.328125 9.421875 -19.320312 9.421875 -17 C 9.421875 -14.675781 9.898438 -12.632812 10.859375 -10.875 C 11.816406 -9.125 13.078125 -7.789062 14.640625 -6.875 C 16.210938 -5.957031 17.875 -5.5 19.625 -5.5 C 21.414062 -5.5 23.085938 -5.945312 24.640625 -6.84375 C 26.191406 -7.738281 27.445312 -9.050781 28.40625 -10.78125 C 29.363281 -12.519531 29.84375 -14.550781 29.84375 -16.875 Z M 29.84375 -16.875 "/></g></g></g><g fill="#000000" fill-opacity="1"><g transform="translate(1195.924745, 439.530623)"><g><path d="M 16.8125 0.546875 C 14.164062 0.546875 11.789062 0.0664062 9.6875 -0.890625 C 7.59375 -1.847656 5.929688 -3.148438 4.703125 -4.796875 C 3.484375 -6.453125 2.832031 -8.296875 2.75 -10.328125 L 9.96875 -10.328125 C 10.09375 -8.898438 10.773438 -7.707031 12.015625 -6.75 C 13.253906 -5.789062 14.8125 -5.3125 16.6875 -5.3125 C 18.644531 -5.3125 20.160156 -5.6875 21.234375 -6.4375 C 22.316406 -7.195312 22.859375 -8.171875 22.859375 -9.359375 C 22.859375 -10.617188 22.257812 -11.550781 21.0625 -12.15625 C 19.863281 -12.769531 17.957031 -13.445312 15.34375 -14.1875 C 12.820312 -14.875 10.765625 -15.546875 9.171875 -16.203125 C 7.578125 -16.859375 6.195312 -17.859375 5.03125 -19.203125 C 3.875 -20.546875 3.296875 -22.316406 3.296875 -24.515625 C 3.296875 -26.304688 3.828125 -27.945312 4.890625 -29.4375 C 5.953125 -30.925781 7.46875 -32.097656 9.4375 -32.953125 C 11.414062 -33.804688 13.691406 -34.234375 16.265625 -34.234375 C 20.097656 -34.234375 23.1875 -33.265625 25.53125 -31.328125 C 27.875 -29.398438 29.125 -26.765625 29.28125 -23.421875 L 22.3125 -23.421875 C 22.195312 -24.921875 21.585938 -26.117188 20.484375 -27.015625 C 19.378906 -27.921875 17.890625 -28.375 16.015625 -28.375 C 14.179688 -28.375 12.773438 -28.023438 11.796875 -27.328125 C 10.816406 -26.640625 10.328125 -25.722656 10.328125 -24.578125 C 10.328125 -23.679688 10.65625 -22.925781 11.3125 -22.3125 C 11.96875 -21.707031 12.765625 -21.226562 13.703125 -20.875 C 14.640625 -20.53125 16.023438 -20.09375 17.859375 -19.5625 C 20.296875 -18.914062 22.300781 -18.253906 23.875 -17.578125 C 25.445312 -16.898438 26.800781 -15.910156 27.9375 -14.609375 C 29.082031 -13.304688 29.675781 -11.578125 29.71875 -9.421875 C 29.71875 -7.503906 29.1875 -5.789062 28.125 -4.28125 C 27.0625 -2.769531 25.5625 -1.585938 23.625 -0.734375 C 21.695312 0.117188 19.425781 0.546875 16.8125 0.546875 Z M 16.8125 0.546875 "/></g></g></g><g fill="#000000" fill-opacity="1"><g transform="translate(1228.56518, 439.530623)"><g><path d="M 8.125 -38.15625 C 6.863281 -38.15625 5.804688 -38.582031 4.953125 -39.4375 C 4.097656 -40.289062 3.671875 -41.347656 3.671875 -42.609375 C 3.671875 -43.878906 4.097656 -44.941406 4.953125 -45.796875 C 5.804688 -46.648438 6.863281 -47.078125 8.125 -47.078125 C 9.351562 -47.078125 10.394531 -46.648438 11.25 -45.796875 C 12.101562 -44.941406 12.53125 -43.878906 12.53125 -42.609375 C 12.53125 -41.347656 12.101562 -40.289062 11.25 -39.4375 C 10.394531 -38.582031 9.351562 -38.15625 8.125 -38.15625 Z M 11.5625 -33.6875 L 11.5625 0 L 4.578125 0 L 4.578125 -33.6875 Z M 11.5625 -33.6875 "/></g></g></g><g fill="#000000" fill-opacity="1"><g transform="translate(1244.702012, 439.530623)"><g><path d="M 19.203125 0.546875 C 16.015625 0.546875 13.132812 -0.175781 10.5625 -1.625 C 8 -3.070312 5.984375 -5.109375 4.515625 -7.734375 C 3.054688 -10.359375 2.328125 -13.40625 2.328125 -16.875 C 2.328125 -20.300781 3.078125 -23.335938 4.578125 -25.984375 C 6.085938 -28.628906 8.144531 -30.664062 10.75 -32.09375 C 13.363281 -33.519531 16.28125 -34.234375 19.5 -34.234375 C 22.71875 -34.234375 25.628906 -33.519531 28.234375 -32.09375 C 30.847656 -30.664062 32.910156 -28.628906 34.421875 -25.984375 C 35.929688 -23.335938 36.6875 -20.300781 36.6875 -16.875 C 36.6875 -13.445312 35.910156 -10.410156 34.359375 -7.765625 C 32.804688 -5.117188 30.695312 -3.070312 28.03125 -1.625 C 25.363281 -0.175781 22.421875 0.546875 19.203125 0.546875 Z M 19.203125 -5.5 C 20.992188 -5.5 22.671875 -5.925781 24.234375 -6.78125 C 25.804688 -7.644531 27.082031 -8.929688 28.0625 -10.640625 C 29.039062 -12.347656 29.53125 -14.425781 29.53125 -16.875 C 29.53125 -19.320312 29.0625 -21.390625 28.125 -23.078125 C 27.1875 -24.773438 25.941406 -26.050781 24.390625 -26.90625 C 22.847656 -27.757812 21.175781 -28.1875 19.375 -28.1875 C 17.582031 -28.1875 15.921875 -27.757812 14.390625 -26.90625 C 12.867188 -26.050781 11.660156 -24.773438 10.765625 -23.078125 C 9.867188 -21.390625 9.421875 -19.320312 9.421875 -16.875 C 9.421875 -13.25 10.347656 -10.445312 12.203125 -8.46875 C 14.054688 -6.488281 16.390625 -5.5 19.203125 -5.5 Z M 25.796875 -43.28125 L 12.28125 -36.625 L 12.28125 -41.75 L 25.796875 -49.21875 Z M 25.796875 -43.28125 "/></g></g></g><g fill="#000000" fill-opacity="1"><g transform="translate(1283.699421, 439.530623)"><g><path d="M 21.578125 -34.234375 C 24.234375 -34.234375 26.609375 -33.679688 28.703125 -32.578125 C 30.804688 -31.484375 32.445312 -29.851562 33.625 -27.6875 C 34.8125 -25.53125 35.40625 -22.925781 35.40625 -19.875 L 35.40625 0 L 28.484375 0 L 28.484375 -18.828125 C 28.484375 -21.847656 27.726562 -24.160156 26.21875 -25.765625 C 24.71875 -27.378906 22.660156 -28.1875 20.046875 -28.1875 C 17.441406 -28.1875 15.375 -27.378906 13.84375 -25.765625 C 12.320312 -24.160156 11.5625 -21.847656 11.5625 -18.828125 L 11.5625 0 L 4.578125 0 L 4.578125 -33.6875 L 11.5625 -33.6875 L 11.5625 -29.84375 C 12.695312 -31.226562 14.148438 -32.304688 15.921875 -33.078125 C 17.703125 -33.847656 19.585938 -34.234375 21.578125 -34.234375 Z M 21.578125 -34.234375 "/></g></g></g></svg>